PathFileType  4	(X/Y/Z) C:\Users\antoi\Documents\MyRepositories\mobilecap\ResultsAnalysis
DataRate	CameraRate	NumFrames	NumMarkers	Units	OrigDataRate	OrigDataStartFrame	OrigNumFrames
100.0	100.0	4	51	mm	100.0	661	1321
Frame#	Time	r_knee			r_shank_antsup			r_ankle			r_calc			r_5meta			r_toe			L_knee			L_shank_antsup			L_ankle			L_calc			L_5meta			L_toe			r_sh2			r_sh3			r_sh4			L_sh2			L_sh3			r_thigh1			r_thigh2			r_thigh3			r_thigh4			r_thigh5			L_thigh1			L_thigh2			L_thigh3			L_thigh4			r.ASIS			r.PSIS			L.ASIS			L.PSIS			C7			R_Shoulder			L_Shoulder			R_Sternum			L_Sternum			R_humerus			R_elbow_med			R_elbow_lat			R_forearm			R_wrist_radius			R_wrist_ulna			L_humerus			L_elbow_med			L_elbow_lat			L_forearm			L_wrist_radius			L_wrist_ulna			R_HJC			L_HJC			R_HJC_reg			L_HJC_reg			
		X1	Y1	Z1	X2	Y2	Z2	X3	Y3	Z3	X4	Y4	Z4	X5	Y5	Z5	X6	Y6	Z6	X7	Y7	Z7	X8	Y8	Z8	X9	Y9	Z9	X10	Y10	Z10	X11	Y11	Z11	X12	Y12	Z12	X13	Y13	Z13	X14	Y14	Z14	X15	Y15	Z15	X16	Y16	Z16	X17	Y17	Z17	X18	Y18	Z18	X19	Y19	Z19	X20	Y20	Z20	X21	Y21	Z21	X22	Y22	Z22	X23	Y23	Z23	X24	Y24	Z24	X25	Y25	Z25	X26	Y26	Z26	X27	Y27	Z27	X28	Y28	Z28	X29	Y29	Z29	X30	Y30	Z30	X31	Y31	Z31	X32	Y32	Z32	X33	Y33	Z33	X34	Y34	Z34	X35	Y35	Z35	X36	Y36	Z36	X37	Y37	Z37	X38	Y38	Z38	X39	Y39	Z39	X40	Y40	Z40	X41	Y41	Z41	X42	Y42	Z42	X43	Y43	Z43	X44	Y44	Z44	X45	Y45	Z45	X46	Y46	Z46	X47	Y47	Z47	X48	Y48	Z48	X49	Y49	Z49	X50	Y50	Z50	X51	Y51	Z51	

661	6.60000000	-104.41530	407.92417	-395.60947	-65.35793	340.93029	-406.58184	-273.75607	85.97288	-432.18864	-331.64081	56.62980	-477.42958	-173.74037	41.67602	-397.90807	-132.81982	56.40482	-450.89175	-110.15899	425.35600	-764.23300	-81.07804	329.37163	-767.27281	-270.86134	97.14040	-788.34915	-332.91270	55.74234	-745.91719	-178.92091	44.99047	-829.92874	-126.01403	60.00174	-778.72147	-125.71722	244.79457	-408.77688	-123.50098	376.48304	-371.83586	-190.30867	282.10292	-373.89809	-147.56986	383.12917	-794.47501	-207.82788	277.23904	-812.57812	-296.41053	553.00721	-339.87447	-196.00206	508.63466	-357.16006	-245.80273	411.51894	-387.82429	-350.37205	457.53316	-357.98001	-206.28449	438.86227	-361.87726	-329.25396	596.61396	-742.77447	-207.84756	532.47705	-748.75011	-389.35791	500.80235	-750.03822	-265.47294	434.71169	-744.46955	-304.02387	607.47392	-426.50172	-464.18981	733.70728	-489.77835	-307.66007	612.25852	-639.78611	-466.20122	733.07961	-569.63001	-82.47332	966.09952	-518.56723	-27.95821	914.38754	-396.81211	-32.12016	919.55272	-642.49304	-8.39407	847.89236	-505.33455	-12.19091	847.90988	-532.90208	36.59556	856.91524	-339.94093	128.94670	664.48435	-308.09764	152.95788	713.01984	-262.41650	220.29497	767.89349	-302.12989	329.15832	808.83888	-381.17807	352.30367	788.75528	-357.78523	21.05548	864.45086	-711.11283	136.90411	674.35186	-724.10249	154.49485	726.14907	-765.35958	242.36409	765.27318	-715.03632	334.35176	793.99260	-633.14583	355.04123	763.88450	-650.39326	-414.62729	569.86266	-426.84210	-417.82828	576.27838	-634.22579	-396.16429	588.37732	-452.96171	-399.71012	587.27150	-593.73625	
662	6.61000000	-103.75652	407.18749	-394.86579	-64.80733	340.21760	-406.19968	-273.66092	85.91998	-432.49128	-331.58103	56.74482	-477.57522	-173.73492	41.69401	-397.91667	-132.78173	56.33941	-450.89553	-109.90530	425.16470	-765.62918	-80.64929	329.06016	-768.65241	-270.80722	97.02620	-788.31499	-332.82926	55.85359	-745.86692	-178.94403	44.90823	-829.97708	-126.24034	59.77936	-779.07353	-125.02905	244.42119	-408.41980	-122.78432	375.94171	-371.20415	-189.98120	281.80271	-373.64558	-147.23329	382.78915	-795.86219	-207.63299	276.95954	-813.38068	-296.56563	550.82268	-339.73250	-195.97907	507.22911	-356.68815	-245.13062	409.86044	-387.25959	-350.01959	455.15694	-357.77921	-205.79438	437.21056	-361.67856	-330.02440	595.46627	-743.47369	-208.27834	531.75818	-749.58933	-389.56937	499.01263	-750.63585	-265.33127	433.56391	-745.42810	-304.16768	605.18091	-425.84359	-464.10513	730.73444	-489.45904	-307.52421	609.61431	-639.03278	-466.04003	730.34048	-569.28880	-81.16234	961.61278	-518.73680	-26.73448	909.64761	-397.33952	-31.05572	915.07686	-642.83367	-7.42642	843.00947	-506.33952	-11.41038	842.93700	-532.91921	37.91830	852.35294	-340.58716	130.63063	660.29176	-308.99631	154.63393	708.74107	-262.97923	221.63421	764.06703	-302.81195	330.19922	805.68470	-381.82655	353.45293	785.48712	-358.73950	21.96429	860.13094	-711.75465	138.25426	670.24380	-724.07428	155.67599	722.06308	-765.52872	243.51798	761.47401	-715.32065	335.33323	790.55777	-633.27024	356.16755	760.44028	-650.40450	-414.59414	567.28656	-426.24805	-417.51957	573.46224	-633.64263	-396.09982	585.39450	-452.44156	-399.51013	584.69919	-593.15154	
663	6.62000000	-103.07521	406.49226	-394.10484	-64.21346	339.57623	-405.65198	-273.62765	85.82388	-432.74494	-331.48083	56.83875	-477.79548	-173.72335	41.72044	-397.92936	-132.74292	56.26147	-450.89275	-109.62113	425.31088	-767.60341	-80.15368	328.75387	-770.14679	-270.75496	96.94989	-788.31067	-332.72897	56.01254	-745.81534	-178.97048	44.82352	-830.03246	-126.34756	59.59758	-779.31074	-124.36731	243.96138	-408.09674	-122.08753	375.31233	-370.58316	-189.42925	280.95194	-373.51579	-146.89518	382.36122	-797.12342	-207.43839	276.54622	-813.95655	-296.84336	548.94233	-339.31444	-196.01799	505.91133	-356.06175	-244.48211	408.30820	-386.59141	-349.73633	452.88223	-357.48427	-205.31514	435.63288	-361.23972	-330.51717	594.25548	-744.35386	-208.63010	530.92854	-750.40768	-389.74349	497.27571	-751.33289	-265.15067	432.40692	-746.45821	-304.21943	602.52811	-425.82283	-463.92067	727.92530	-489.08675	-307.41884	607.35083	-638.88097	-465.86377	727.71320	-569.02515	-79.91967	957.37583	-518.95754	-25.59558	905.32877	-397.62558	-30.08784	910.76312	-643.02888	-6.46395	838.40932	-508.02996	-10.61588	838.35863	-532.99549	39.20326	848.09718	-341.18128	132.38327	656.31710	-310.09783	156.18136	704.68279	-263.53477	222.86618	760.37091	-303.45492	331.10342	802.66362	-382.53837	354.50244	782.47674	-359.46906	22.85665	856.21516	-712.43655	139.45700	666.37524	-724.25444	156.71727	718.05962	-765.49801	244.57579	757.89648	-715.58670	336.21024	787.24844	-633.43322	357.12659	757.22473	-650.63387	-414.47782	564.46588	-426.27001	-417.32702	571.07210	-633.65127	-395.98426	582.70188	-452.44238	-399.40251	582.32917	-593.07150	
664	6.63000000	-102.41859	405.88825	-393.19468	-63.46012	339.27508	-404.68002	-273.56175	85.79844	-432.84674	-331.39490	56.87649	-478.06598	-173.70913	41.73573	-397.94106	-132.68148	56.18595	-450.88808	-109.25549	425.65321	-770.05512	-79.70902	328.47643	-771.65492	-270.69575	96.94921	-788.34770	-332.60376	56.19438	-745.72559	-178.99904	44.75674	-830.08529	-126.28804	59.49731	-779.37084	-123.85483	243.35258	-407.83645	-121.53936	374.65527	-369.94848	-188.71922	279.82544	-373.43432	-146.55002	381.97738	-798.48837	-207.20570	276.21870	-815.00342	-297.27813	547.22012	-338.56110	-196.14704	504.73756	-355.25476	-243.88883	406.82605	-386.01143	-349.49430	450.74280	-357.10357	-204.92412	434.32773	-360.45838	-330.84351	592.59247	-744.85081	-208.92473	530.01289	-751.36616	-389.91116	495.58023	-751.86536	-264.86636	431.34209	-747.77826	-304.26519	599.80018	-425.97732	-463.66450	725.32138	-488.80509	-307.50071	605.52828	-639.61642	-465.72284	725.12421	-568.81571	-78.74728	953.46479	-519.24382	-24.51594	901.31743	-397.85524	-29.21244	906.74972	-643.15097	-5.64582	834.18891	-509.09764	-9.77804	834.30915	-533.44627	40.39550	844.12824	-341.67993	133.82195	652.72600	-311.07353	157.59677	700.89065	-264.10456	224.02999	756.84169	-304.00744	331.88934	799.81042	-383.24631	355.45559	779.65285	-360.31015	23.70789	852.48426	-712.59160	140.54269	662.82096	-724.66472	157.73027	714.31898	-765.55822	245.51621	754.50025	-715.80546	336.99148	784.09642	-633.63979	357.95417	754.10320	-650.99651	-414.29228	561.59295	-426.76436	-417.29632	569.04323	-634.11556	-396.00479	580.36154	-452.56330	-399.63317	580.01466	-593.58499	
